<?xml version="1.0" encoding="UTF-8" standalone="no"?>
<svg
   xmlns:dc="http://purl.org/dc/elements/1.1/"
   xmlns:cc="http://creativecommons.org/ns#"
   xmlns:rdf="http://www.w3.org/1999/02/22-rdf-syntax-ns#"
   xmlns:svg="http://www.w3.org/2000/svg"
   xmlns="http://www.w3.org/2000/svg"
   viewBox="0 0 274.62336 90.827265"
   height="90.827263"
   width="274.62335"
   xml:space="preserve"
   version="1.1"
   id="svg2"><metadata
     id="metadata8"><rdf:RDF><cc:Work
         rdf:about=""><dc:format>image/svg+xml</dc:format><dc:type
           rdf:resource="http://purl.org/dc/dcmitype/StillImage" /><dc:title></dc:title></cc:Work></rdf:RDF></metadata><defs
     id="defs6"><clipPath
       id="clipPath3368"
       clipPathUnits="userSpaceOnUse"><path
         id="path3370"
         d="m 525.793,639.133 -198.97,0 0,-42.677 198.97,0 0,42.677 z" /></clipPath><clipPath
       id="clipPath3374"
       clipPathUnits="userSpaceOnUse"><path
         id="path3376"
         d="m 525.793,596.455 -110.26,0 0,13.788 c -0.001,1.326 -0.664,2.5 -1.673,3.211 l 1.122,0 0,-0.243 c 1.307,0.317 2.544,0.434 3.773,0.434 1.594,0 3.171,-0.197 4.855,-0.406 l 0,0.215 4.83,0 2.319,-2.289 95.034,0 0,-14.71 m -111.688,0 -69.715,0 10.292,11.79 c 0.572,0.654 1.211,1.346 1.773,1.927 0.559,0.579 1.06,1.057 1.293,1.242 0.164,0.138 0.637,0.382 1.182,0.572 0.549,0.195 1.187,0.36 1.741,0.44 1.151,0.168 3.586,0.314 5.31,0.314 0.008,0 0.014,0 0.021,0 l 45.605,0 c 0.688,0 1.31,-0.278 1.766,-0.733 0.454,-0.457 0.732,-1.077 0.732,-1.764 l 0,-13.788 m -82.653,0 -4.629,0 0,16.285 17.989,0 -13.36,-16.285 m 87.403,24.915 c -1.088,0 -2.155,0.131 -3.217,0.56 -0.035,0.006 -0.07,0.014 -0.105,0.021 0,0.006 0,0.012 0,0.018 0,0.394 -0.319,0.714 -0.713,0.714 l -52.029,0 c -0.395,0 -0.714,-0.32 -0.714,-0.714 l -2.259,0 -2.614,1.548 -1.57,1.806 0,13.81 170.159,0 0,-14.712 -95.034,0 -2.319,-2.29 -4.21,0 c -0.002,-0.129 0.028,-0.266 0.105,-0.418 -1.923,0 -3.728,-0.343 -5.48,-0.343 m -72.371,0.599 -19.661,0 0,17.164 19.661,0 0,-17.164" /></clipPath><linearGradient
       id="linearGradient3380"
       spreadMethod="pad"
       gradientTransform="matrix(-200.007,0,0,200.007,526.278,617.63)"
       gradientUnits="userSpaceOnUse"
       y2="0"
       x2="1"
       y1="0"
       x1="0"><stop
         id="stop3382"
         offset="0"
         style="stop-opacity:1;stop-color:#f5f5f5" /><stop
         id="stop3384"
         offset="0.607143"
         style="stop-opacity:1;stop-color:#f5f5f5" /><stop
         id="stop3386"
         offset="0.79801697"
         style="stop-opacity:1;stop-color:#f5f5f5" /><stop
         id="stop3388"
         offset="1"
         style="stop-opacity:1;stop-color:#171715" /></linearGradient><clipPath
       id="clipPath3400"
       clipPathUnits="userSpaceOnUse"><path
         id="path3402"
         d="m 326.286,595.92 200.042,0 0,43.747 -200.042,0 0,-43.747" /></clipPath><clipPath
       id="clipPath3428"
       clipPathUnits="userSpaceOnUse"><path
         id="path3430"
         d="m 326.286,595.92 200.042,0 0,43.747 -200.042,0 0,-43.747" /></clipPath><clipPath
       id="clipPath3444"
       clipPathUnits="userSpaceOnUse"><path
         id="path3446"
         d="m 326.286,595.92 200.042,0 0,43.747 -200.042,0 0,-43.747" /></clipPath><clipPath
       id="clipPath3460"
       clipPathUnits="userSpaceOnUse"><path
         id="path3462"
         d="m 326.286,595.92 200.042,0 0,43.747 -200.042,0 0,-43.747" /></clipPath><clipPath
       id="clipPath3500"
       clipPathUnits="userSpaceOnUse"><path
         id="path3502"
         d="m 326.286,595.92 200.042,0 0,43.747 -200.042,0 0,-43.747" /></clipPath><clipPath
       id="clipPath3540"
       clipPathUnits="userSpaceOnUse"><path
         id="path3542"
         d="m 348.871,605.481 c -2.161,10e-4 -3.901,1.727 -3.904,3.846 0.001,0.847 0.276,1.627 0.748,2.263 l 0.244,0.297 c 0.047,0.053 0.097,0.106 0.149,0.157 0.707,0.696 1.68,1.127 2.763,1.128 l 0,0.476 0,-0.476 c 1.081,-10e-4 2.056,-0.432 2.762,-1.128 0.707,-0.698 1.141,-1.655 1.141,-2.717 0,-0.495 -0.096,-0.97 -0.268,-1.405 l -1.68,-1.924 c -0.575,-0.328 -1.241,-0.516 -1.955,-0.517" /></clipPath><clipPath
       id="clipPath3610"
       clipPathUnits="userSpaceOnUse"><path
         id="path3612"
         d="m 326.286,595.92 200.042,0 0,43.747 -200.042,0 0,-43.747" /></clipPath></defs><g
     transform="matrix(1.25,0,0,-1.25,-441.14291,926.18875)"
     id="g10"><g
       transform="translate(45.236365,91.636363)"
       id="g3364"><g
         clip-path="url(#clipPath3368)"
         id="g3366"><g
           clip-path="url(#clipPath3374)"
           id="g3372"><g
             id="g3378"><path
               id="path3390"
               style="fill:url(#linearGradient3380);stroke:none"
               d="m 525.793,596.455 -110.26,0 0,13.788 c -0.001,1.326 -0.664,2.5 -1.673,3.211 l 1.122,0 0,-0.243 c 1.307,0.317 2.544,0.434 3.773,0.434 1.594,0 3.171,-0.197 4.855,-0.406 l 0,0.215 4.83,0 2.319,-2.289 95.034,0 0,-14.71 m -111.688,0 -69.715,0 10.292,11.79 c 0.572,0.654 1.211,1.346 1.773,1.927 0.559,0.579 1.06,1.057 1.293,1.242 0.164,0.138 0.637,0.382 1.182,0.572 0.549,0.195 1.187,0.36 1.741,0.44 1.151,0.168 3.586,0.314 5.31,0.314 0.008,0 0.014,0 0.021,0 l 45.605,0 c 0.688,0 1.31,-0.278 1.766,-0.733 0.454,-0.457 0.732,-1.077 0.732,-1.764 l 0,-13.788 m -82.653,0 -4.629,0 0,16.285 17.989,0 -13.36,-16.285 m 87.403,24.915 c -1.088,0 -2.155,0.131 -3.217,0.56 -0.035,0.006 -0.07,0.014 -0.105,0.021 0,0.006 0,0.012 0,0.018 0,0.394 -0.319,0.714 -0.713,0.714 l -52.029,0 c -0.395,0 -0.714,-0.32 -0.714,-0.714 l -2.259,0 -2.614,1.548 -1.57,1.806 0,13.81 170.159,0 0,-14.712 -95.034,0 -2.319,-2.29 -4.21,0 c -0.002,-0.129 0.028,-0.266 0.105,-0.418 -1.923,0 -3.728,-0.343 -5.48,-0.343 m -72.371,0.599 -19.661,0 0,17.164 19.661,0 0,-17.164" /></g></g></g></g><g
       transform="translate(371.52237,687.55637)"
       id="g3392"><path
         id="path3394"
         style="fill:#615a5a;fill-opacity:1;fill-rule:nonzero;stroke:none"
         d="m 0,0 0,-0.536 200.578,0 0,44.819 -201.112,0 0,-44.819 0.534,0 0,0.536 0.537,0 0,43.213 198.97,0 0,-42.678 L 0,0.535 0,0 0.537,0 0,0" /></g><g
       transform="translate(45.236365,91.636363)"
       id="g3396"><g
         clip-path="url(#clipPath3400)"
         id="g3398"><g
           transform="translate(428.44,613.454)"
           id="g3404"><path
             id="path3406"
             style="fill:#b9b7b6;fill-opacity:1;fill-rule:nonzero;stroke:none"
             d="m 0,0 2.319,-2.289 95.911,0 0,13.255 -95.911,0 L 0,8.676 0,0" /></g></g></g><g
       transform="translate(495.11137,710.06037)"
       id="g3408"><path
         id="path3410"
         style="fill:#cde5c9;fill-opacity:1;fill-rule:nonzero;stroke:none"
         d="m 0,0 c 0,3.144 -2.315,5.688 -5.176,5.688 l -12.655,0 c -2.859,0 -5.174,-2.544 -5.174,-5.688 l 0,-1.264 c 0,-3.141 2.315,-5.689 5.174,-5.689 l 12.655,0 C -2.315,-6.953 0,-4.405 0,-1.264 L 0,0" /></g><g
       transform="translate(495.11137,710.06037)"
       id="g3412"><path
         id="path3414"
         style="fill:#171715;fill-opacity:1;fill-rule:nonzero;stroke:none"
         d="m 0,0 0.536,0 c 0,1.704 -0.628,3.253 -1.655,4.383 -1.026,1.13 -2.465,1.842 -4.057,1.841 l -12.655,0 C -19.422,6.225 -20.861,5.513 -21.887,4.383 -22.913,3.253 -23.541,1.704 -23.541,0 l 0,-1.264 c 0,-1.703 0.628,-3.253 1.654,-4.382 1.026,-1.13 2.465,-1.843 4.056,-1.842 l 12.655,0 c 1.592,-10e-4 3.031,0.712 4.057,1.842 1.027,1.129 1.655,2.679 1.655,4.382 l 0,1.264 -1.07,0 0,-1.264 c 0,-1.438 -0.532,-2.732 -1.376,-3.663 -0.849,-0.929 -1.998,-1.489 -3.266,-1.49 l -12.655,0 c -1.268,10e-4 -2.415,0.561 -3.263,1.49 -0.845,0.931 -1.377,2.225 -1.377,3.663 l 0,1.264 c 0,1.44 0.532,2.734 1.377,3.663 0.848,0.929 1.995,1.49 3.263,1.491 l 12.655,0 C -3.908,5.153 -2.759,4.592 -1.91,3.663 -1.066,2.734 -0.534,1.44 -0.534,0 L 0,0" /></g><g
       transform="translate(505.43937,709.42837)"
       id="g3416"><path
         id="path3418"
         style="fill:#cde5c9;fill-opacity:1;fill-rule:nonzero;stroke:none"
         d="m 0,0 c 0,-3.491 2.829,-6.321 6.32,-6.321 l 47.073,0 c 3.492,0 6.322,2.83 6.322,6.321 0,3.49 -2.83,6.32 -6.322,6.32 L 6.32,6.32 C 2.829,6.32 0,3.49 0,0 0,0 0,3.49 0,0" /></g><g
       transform="translate(505.43937,709.42837)"
       id="g3420"><path
         id="path3422"
         style="fill:#171715;fill-opacity:1;fill-rule:nonzero;stroke:none"
         d="m 0,0 -0.536,0 c 0.001,-3.787 3.07,-6.856 6.856,-6.856 l 47.073,0 c 3.788,0 6.856,3.069 6.856,6.856 0,3.786 -3.068,6.856 -6.856,6.856 l -47.073,0 c -3.786,0 -6.855,-3.07 -6.856,-6.856 0,-0.141 0.058,-0.279 0.157,-0.378 0.102,-0.1 0.238,-0.157 0.379,-0.157 0.141,0 0.279,0.057 0.379,0.157 0.099,0.099 0.156,0.237 0.156,0.378 l 0,1.551 C 0.535,1.692 0.478,1.83 0.379,1.93 0.279,2.03 0.141,2.087 0,2.087 -0.141,2.087 -0.277,2.03 -0.379,1.93 -0.478,1.831 -0.536,1.692 -0.536,1.551 c 0,0 0,-0.387 0,-1.551 l 1.071,0 c 0,1.164 0,1.55 0,1.551 C 0.535,1.692 0.478,1.83 0.379,1.93 0.279,2.03 0.141,2.087 0,2.087 -0.141,2.087 -0.277,2.03 -0.379,1.93 -0.478,1.831 -0.536,1.692 -0.536,1.551 l 0,-1.551 c 0,-0.141 0.058,-0.279 0.157,-0.378 0.102,-0.1 0.238,-0.157 0.379,-0.157 0.141,0 0.279,0.057 0.379,0.157 C 0.478,-0.279 0.535,-0.141 0.535,0 0.536,1.6 1.181,3.042 2.23,4.09 3.278,5.138 4.722,5.786 6.32,5.786 l 47.073,0 c 1.601,0 3.043,-0.648 4.092,-1.696 1.047,-1.048 1.694,-2.49 1.694,-4.09 0,-1.6 -0.647,-3.042 -1.694,-4.091 -1.049,-1.047 -2.491,-1.695 -4.092,-1.695 l -47.073,0 c -1.598,0 -3.042,0.648 -4.09,1.695 C 1.181,-3.042 0.536,-1.6 0.535,0 L 0,0" /></g><g
       transform="translate(45.236365,91.636363)"
       id="g3424"><g
         clip-path="url(#clipPath3428)"
         id="g3426"><g
           transform="translate(423.61,613.239)"
           id="g3432"><path
             id="path3434"
             style="fill:#b9b7b6;fill-opacity:1;fill-rule:nonzero;stroke:none"
             d="m 0,0 0,-0.041 -0.058,0 0.058,0 0,-23.33 -8.628,0 0,23.343 C -5.626,0.701 -2.978,0.37 0,0" /></g></g></g><g
       transform="translate(469.57137,713.34937)"
       id="g3436"><path
         id="path3438"
         style="fill:#b9b7b6;fill-opacity:1;fill-rule:nonzero;stroke:none"
         d="m 0,0 c -3.114,0 -5.921,-0.901 -8.697,0.217 2.566,-0.534 5.405,-0.185 7.914,0.17 -2.509,-0.355 -5.348,-0.704 -7.914,-0.17 -0.219,0.087 -0.436,0.191 -0.656,0.306 l 0,17.431 8.628,0 0,-17.536 0.62,0 C -0.107,0.289 -0.077,0.152 0,0" /></g><g
       transform="translate(45.236365,91.636363)"
       id="g3440"><g
         clip-path="url(#clipPath3444)"
         id="g3442"><g
           transform="translate(428.546,613.454)"
           id="g3448"><path
             id="path3450"
             style="fill:#cde5c9;fill-opacity:1;fill-rule:nonzero;stroke:none"
             d="m 0,0 -4.936,0 0,-0.216 c -2.978,0.37 -5.626,0.702 -8.628,-0.028 l 0,0.244 -52.026,0 -4.446,-0.645 -2.091,-1.676 -18.562,-21.265 -10.721,0 19.348,23.586 -20.313,0 0,8.514 20.313,0 0,17.699 9.15,0 0,-14.344 1.57,-1.807 2.614,-1.548 55.164,0 0,0.116 c 0.217,-0.059 0.435,-0.11 0.656,-0.155 2.776,-1.118 5.583,-0.216 8.697,-0.216 -0.077,0.152 -0.107,0.288 -0.105,0.417 L 0,8.676 0,0" /></g></g></g><g
       transform="translate(480.11337,688.82237)"
       id="g3452"><path
         id="path3454"
         style="fill:#cde5c9;fill-opacity:1;fill-rule:nonzero;stroke:none"
         d="M 0,0 0,0.151 C 0.218,0.036 0.438,-0.068 0.657,-0.155 0.437,-0.11 0.215,-0.058 0,0" /></g><g
       transform="translate(45.236365,91.636363)"
       id="g3456"><g
         clip-path="url(#clipPath3460)"
         id="g3458"><g
           transform="translate(326.972,589.868)"
           id="g3464"><path
             id="path3466"
             style="fill:#171715;fill-opacity:1;fill-rule:nonzero;stroke:none"
             d="m 0,0 0.552,-0.452 19.349,23.586 c 0.118,0.145 0.177,0.336 0.157,0.523 -0.018,0.186 -0.111,0.362 -0.256,0.481 -0.146,0.119 -0.337,0.177 -0.523,0.159 -0.187,-0.019 -0.364,-0.112 -0.483,-0.258 L -0.551,0.453 c -0.25,-0.305 -0.206,-0.755 0.098,-1.005 0.306,-0.249 0.755,-0.205 1.005,0.1 L 0,0 0.552,-0.452 19.901,23.134 c 0.118,0.145 0.177,0.336 0.157,0.523 -0.018,0.186 -0.111,0.362 -0.256,0.481 -0.146,0.119 -0.337,0.177 -0.523,0.159 -0.187,-0.019 -0.364,-0.112 -0.483,-0.258 L -0.551,0.453 c -0.25,-0.305 -0.206,-0.755 0.098,-1.005 0.306,-0.249 0.755,-0.205 1.005,0.1 L 0,0" /></g><g
           transform="translate(326.006,613.454)"
           id="g3468"><path
             id="path3470"
             style="fill:#171715;fill-opacity:1;fill-rule:nonzero;stroke:none"
             d="m 0,0 0,-0.714 20.314,0 c 0.189,0 0.373,0.077 0.505,0.21 0.133,0.132 0.209,0.317 0.209,0.504 0,0.188 -0.076,0.372 -0.209,0.505 -0.132,0.133 -0.316,0.209 -0.505,0.209 L 0,0.714 C -0.19,0.714 -0.372,0.638 -0.505,0.505 -0.638,0.372 -0.714,0.188 -0.714,0 c 0,-0.187 0.076,-0.372 0.209,-0.504 0.133,-0.133 0.315,-0.21 0.505,-0.21 L 0,0 l 0,-0.714 20.314,0 c 0.189,0 0.373,0.077 0.505,0.21 0.133,0.132 0.209,0.317 0.209,0.504 0,0.188 -0.076,0.372 -0.209,0.505 -0.132,0.133 -0.316,0.209 -0.505,0.209 L 0,0.714 C -0.19,0.714 -0.372,0.638 -0.505,0.505 -0.638,0.372 -0.714,0.188 -0.714,0 c 0,-0.187 0.076,-0.372 0.209,-0.504 0.133,-0.133 0.315,-0.21 0.505,-0.21 L 0,0" /></g><g
           transform="translate(345.607,639.667)"
           id="g3472"><path
             id="path3474"
             style="fill:#171715;fill-opacity:1;fill-rule:nonzero;stroke:none"
             d="m 0,0 0,-14.487 c 0,-0.687 -0.279,-1.308 -0.735,-1.764 -0.456,-0.455 -1.075,-0.733 -1.763,-0.734 l -17.102,0 c -0.396,0 -0.715,-0.319 -0.715,-0.714 0,-0.394 0.319,-0.713 0.715,-0.713 l 17.102,0 c 2.164,0.002 3.922,1.76 3.925,3.925 L 1.427,0 C 1.427,0.394 1.108,0.713 0.713,0.713 0.319,0.713 0,0.394 0,0" /></g><g
           transform="translate(354.758,639.667)"
           id="g3476"><path
             id="path3478"
             style="fill:#171715;fill-opacity:1;fill-rule:nonzero;stroke:none"
             d="m 0,0 0,-14.344 c 0,-0.394 0.319,-0.713 0.712,-0.713 0.395,0 0.714,0.319 0.714,0.713 L 1.426,0 C 1.426,0.394 1.107,0.713 0.712,0.713 0.319,0.713 0,0.394 0,0" /></g></g></g><g
       transform="translate(400.16837,716.49037)"
       id="g3480"><path
         id="path3482"
         style="fill:#171715;fill-opacity:1;fill-rule:nonzero;stroke:none"
         d="m 0,0 1.569,-1.806 c 0.259,-0.298 0.71,-0.329 1.008,-0.071 0.295,0.259 0.329,0.709 0.069,1.006 L 1.079,0.937 C 0.82,1.234 0.369,1.266 0.072,1.007 -0.226,0.748 -0.258,0.298 0,0" /></g><g
       transform="translate(401.91337,714.53837)"
       id="g3484"><path
         id="path3486"
         style="fill:#171715;fill-opacity:1;fill-rule:nonzero;stroke:none"
         d="m 0,0 2.614,-1.548 c 0.339,-0.201 0.777,-0.089 0.977,0.25 0.201,0.34 0.089,0.778 -0.25,0.978 L 0.727,1.229 C 0.386,1.429 -0.051,1.317 -0.251,0.977 -0.453,0.639 -0.34,0.201 0,0" /></g><g
       transform="translate(404.89237,712.89137)"
       id="g3488"><path
         id="path3490"
         style="fill:#171715;fill-opacity:1;fill-rule:nonzero;stroke:none"
         d="m 0,0 3.135,0 c 0.394,0 0.713,0.319 0.713,0.714 0,0.394 -0.319,0.713 -0.713,0.713 L 0,1.427 C -0.395,1.427 -0.715,1.108 -0.715,0.714 -0.715,0.319 -0.395,0 0,0" /></g><g
       transform="translate(408.02737,712.89137)"
       id="g3492"><path
         id="path3494"
         style="fill:#171715;fill-opacity:1;fill-rule:nonzero;stroke:none"
         d="m 0,0 52.029,0 c 0.394,0 0.713,0.319 0.713,0.714 0,0.394 -0.319,0.713 -0.713,0.713 L 0,1.427 C -0.395,1.427 -0.714,1.108 -0.714,0.714 -0.714,0.319 -0.395,0 0,0" /></g><g
       transform="translate(45.236365,91.636363)"
       id="g3496"><g
         clip-path="url(#clipPath3500)"
         id="g3498"><g
           transform="translate(415.533,621.969)"
           id="g3504"><path
             id="path3506"
             style="fill:#171715;fill-opacity:1;fill-rule:nonzero;stroke:none"
             d="m 0,0 0,17.698 c 0,0.395 -0.319,0.714 -0.713,0.714 -0.394,0 -0.715,-0.319 -0.715,-0.714 L -1.428,0 c 0,-0.395 0.321,-0.714 0.715,-0.714 C -0.319,-0.714 0,-0.395 0,0" /></g><g
           transform="translate(415.533,589.868)"
           id="g3508"><path
             id="path3510"
             style="fill:#171715;fill-opacity:1;fill-rule:nonzero;stroke:none"
             d="m 0,0 0,20.375 c -0.002,2.164 -1.761,3.922 -3.926,3.925 l -45.605,0 c -1.808,-0.001 -4.247,-0.144 -5.536,-0.329 -0.669,-0.098 -1.377,-0.283 -2.013,-0.508 -0.639,-0.232 -1.187,-0.48 -1.599,-0.802 -0.343,-0.276 -0.839,-0.761 -1.424,-1.363 -0.583,-0.6 -1.234,-1.306 -1.824,-1.982 L -78.377,0.469 c -0.26,-0.297 -0.229,-0.747 0.069,-1.007 0.296,-0.258 0.746,-0.228 1.006,0.069 l 16.451,18.845 c 0.572,0.655 1.211,1.347 1.773,1.929 0.559,0.578 1.06,1.057 1.293,1.241 0.164,0.139 0.637,0.382 1.182,0.571 0.549,0.196 1.187,0.361 1.741,0.441 1.155,0.169 3.605,0.316 5.331,0.314 l 45.605,0 c 0.688,0 1.31,-0.278 1.765,-0.733 0.455,-0.457 0.733,-1.077 0.733,-1.764 L -1.428,0 c 0,-0.394 0.321,-0.714 0.715,-0.714 0.394,0 0.714,0.32 0.714,0.714 L 0,0" /></g><g
           transform="translate(422.733,639.667)"
           id="g3512"><path
             id="path3514"
             style="fill:#171715;fill-opacity:1;fill-rule:nonzero;stroke:none"
             d="m 0,0 0,-14.326 c 0.001,-1.032 0.32,-1.982 0.872,-2.702 0.546,-0.718 1.366,-1.223 2.309,-1.223 0.767,0.001 1.572,0.142 2.299,0.37 0.724,0.235 1.362,0.531 1.828,0.982 0.063,0.065 0.244,0.19 0.497,0.301 0.767,0.355 2.153,0.643 3.372,0.638 l 92.702,0 c 0.393,0 0.713,0.319 0.713,0.714 0,0.394 -0.32,0.714 -0.713,0.714 l -92.702,0 c -0.953,-10e-4 -1.934,-0.137 -2.788,-0.36 -0.429,-0.112 -0.823,-0.246 -1.173,-0.405 -0.35,-0.161 -0.654,-0.337 -0.91,-0.587 -0.172,-0.18 -0.669,-0.456 -1.257,-0.636 -0.59,-0.187 -1.278,-0.305 -1.868,-0.304 -0.417,0 -0.829,0.219 -1.178,0.665 -0.343,0.443 -0.577,1.099 -0.576,1.833 L 1.427,0 c 0,0.394 -0.32,0.713 -0.714,0.713 C 0.319,0.713 0,0.394 0,0" /></g><g
           transform="translate(424.16,589.868)"
           id="g3516"><path
             id="path3518"
             style="fill:#171715;fill-opacity:1;fill-rule:nonzero;stroke:none"
             d="m 0,0 0,20.375 c -0.001,0.733 0.233,1.39 0.576,1.834 0.349,0.447 0.761,0.663 1.178,0.663 0.59,0.001 1.278,-0.116 1.868,-0.302 0.588,-0.181 1.085,-0.456 1.257,-0.635 0.256,-0.25 0.56,-0.427 0.91,-0.588 1.042,-0.467 2.53,-0.759 3.961,-0.764 l 92.702,0 c 0.393,0 0.713,0.32 0.713,0.714 0,0.394 -0.32,0.714 -0.713,0.714 l -92.702,0 C 8.937,22.01 8.052,22.132 7.322,22.324 6.959,22.419 6.633,22.532 6.378,22.647 6.125,22.761 5.944,22.884 5.881,22.95 5.415,23.4 4.777,23.696 4.053,23.931 3.326,24.158 2.521,24.299 1.754,24.3 c -0.943,0 -1.763,-0.505 -2.309,-1.222 -0.552,-0.721 -0.871,-1.67 -0.872,-2.703 L -1.427,0 c 0,-0.394 0.319,-0.714 0.713,-0.714 C -0.32,-0.714 0,-0.394 0,0" /></g></g></g><g
       transform="translate(394.75737,728.21337)"
       id="g3520"><path
         id="path3522"
         style="fill:#615a5a;fill-opacity:1;fill-rule:nonzero;stroke:none"
         d="m 0,0 c 0,-0.68 -0.004,-1.341 -0.004,-1.991 -0.004,-3.939 0.157,-7.494 2.381,-11.675 0.9,-1.708 2.272,-2.751 3.784,-3.313 1.517,-0.567 3.168,-0.696 4.777,-0.698 0.136,0 0.274,0.001 0.41,0.003 0.393,0.006 0.71,0.329 0.704,0.723 -0.005,0.393 -0.327,0.71 -0.722,0.704 -0.131,-0.002 -0.261,-0.002 -0.392,-0.002 -1.53,-0.001 -3.019,0.134 -4.274,0.606 -1.257,0.479 -2.28,1.252 -3.026,2.646 -2.067,3.907 -2.211,7.081 -2.215,11.006 0,0.644 0.004,1.306 0.004,1.991 0,0.394 -0.319,0.714 -0.714,0.714 C 0.32,0.714 0,0.394 0,0" /></g><g
       transform="translate(404.16537,708.57837)"
       id="g3524"><path
         id="path3526"
         style="fill:#615a5a;fill-opacity:1;fill-rule:nonzero;stroke:none"
         d="M 0,0 1.051,2.673 -0.144,5.284 6.191,2.815 0,0" /></g><g
       transform="translate(382.93037,708.71537)"
       id="g3528"><path
         id="path3530"
         style="fill:#615a5a;fill-opacity:1;fill-rule:nonzero;stroke:none"
         d="m 0,0 6.011,0 c 0.393,0 0.713,0.319 0.713,0.714 0,0.394 -0.32,0.713 -0.713,0.713 L 0,1.427 C -0.393,1.427 -0.713,1.108 -0.713,0.714 -0.713,0.319 -0.393,0 0,0" /></g><g
       transform="translate(386.93737,706.78637)"
       id="g3532"><path
         id="path3534"
         style="fill:#615a5a;fill-opacity:1;fill-rule:nonzero;stroke:none"
         d="M 0,0 1.122,2.643 0,5.286 6.266,2.643 0,0" /></g><g
       transform="translate(45.236365,91.636363)"
       id="g3536"><g
         clip-path="url(#clipPath3540)"
         id="g3538"><path
           id="path3544"
           style="fill:#f1d0dd;fill-opacity:1;fill-rule:nonzero;stroke:none"
           d="m 344.967,605.481 7.807,0 0,8.1669 -7.807,0 0,-8.1669 z" /></g></g><g
       transform="translate(390.95137,703.22637)"
       id="g3546"><path
         id="path3548"
         style="fill:#d5b6c6;fill-opacity:1;fill-rule:nonzero;stroke:none"
         d="M 0,0 C 0.076,0.102 0.157,0.201 0.244,0.296 L 0,0" /></g><g
       transform="translate(396.06237,697.63437)"
       id="g3550"><path
         id="path3552"
         style="fill:#d5b6c6;fill-opacity:1;fill-rule:nonzero;stroke:none"
         d="M 0,0 1.68,1.924 C 1.481,1.429 1.184,0.984 0.807,0.613 0.566,0.376 0.296,0.17 0,0" /></g><g
       transform="translate(394.10737,705.28437)"
       id="g3554"><path
         id="path3556"
         style="fill:#171715;fill-opacity:1;fill-rule:nonzero;stroke:none"
         d="M 0,0 0,0.476 C -2.678,0.471 -4.855,-1.667 -4.856,-4.32 -4.855,-6.976 -2.678,-9.114 0,-9.118 2.676,-9.114 4.853,-6.976 4.854,-4.32 4.853,-1.667 2.676,0.471 0,0.476 l 0,-0.952 c 1.081,0 2.056,-0.431 2.762,-1.128 C 3.469,-2.303 3.903,-3.26 3.903,-4.32 3.903,-5.383 3.469,-6.341 2.762,-7.038 2.056,-7.735 1.081,-8.166 0,-8.166 c -2.161,0 -3.901,1.726 -3.904,3.846 10e-4,1.06 0.434,2.017 1.141,2.716 0.707,0.697 1.68,1.128 2.763,1.128 L 0,0" /></g><g
       transform="translate(445.94337,705.80437)"
       id="g3558"><path
         id="path3560"
         style="fill:#f5f1b6;fill-opacity:1;fill-rule:nonzero;stroke:none"
         d="m 0,0 -4.773,0 c -1.2,0.771 -1.994,2.106 -1.994,3.625 0,1.415 0.693,2.673 1.76,3.461 l 5.241,0 C 1.302,6.298 1.991,5.04 1.991,3.625 1.991,2.106 1.198,0.771 0,0" /></g><g
       transform="translate(446.17737,712.89137)"
       id="g3562"><path
         id="path3564"
         style="fill:#d8d2a7;fill-opacity:1;fill-rule:nonzero;stroke:none"
         d="M 0,0 -5.241,0 C -4.512,0.539 -3.604,0.859 -2.62,0.859 -1.637,0.859 -0.729,0.539 0,0" /></g><g
       transform="translate(443.55737,705.10737)"
       id="g3566"><path
         id="path3568"
         style="fill:#d8d2a7;fill-opacity:1;fill-rule:nonzero;stroke:none"
         d="m 0,0 c -0.881,0 -1.701,0.256 -2.387,0.698 l 4.773,0 C 1.7,0.256 0.88,0 0,0" /></g><g
       transform="translate(443.55737,713.75037)"
       id="g3570"><path
         id="path3572"
         style="fill:#171715;fill-opacity:1;fill-rule:nonzero;stroke:none"
         d="M 0,0 0,0.476 C -2.678,0.471 -4.855,-1.668 -4.856,-4.322 -4.855,-6.977 -2.677,-9.114 0,-9.119 c 2.677,0.005 4.853,2.142 4.853,4.797 0,2.654 -2.176,4.793 -4.853,4.798 l 0,-0.952 c 2.159,0 3.897,-1.727 3.901,-3.846 C 3.897,-6.442 2.159,-8.167 0,-8.167 c -2.162,0 -3.901,1.726 -3.905,3.845 0,1.061 0.435,2.019 1.141,2.718 0.709,0.696 1.682,1.128 2.764,1.128 L 0,0" /></g><g
       transform="translate(534.35137,705.10737)"
       id="g3574"><path
         id="path3576"
         style="fill:#b2c9e2;fill-opacity:1;fill-rule:nonzero;stroke:none"
         d="m 0,0 c -2.418,0 -4.379,1.934 -4.379,4.321 0,2.386 1.961,4.322 4.379,4.322 2.419,0 4.381,-1.936 4.381,-4.322 C 4.381,1.934 2.419,0 0,0" /></g><g
       transform="translate(534.35137,713.75037)"
       id="g3578"><path
         id="path3580"
         style="fill:#171715;fill-opacity:1;fill-rule:nonzero;stroke:none"
         d="M 0,0 0,0.476 C -2.678,0.471 -4.854,-1.668 -4.855,-4.322 -4.854,-6.977 -2.677,-9.114 0,-9.119 2.678,-9.114 4.854,-6.977 4.855,-4.322 4.854,-1.668 2.678,0.471 0,0.476 l 0,-0.952 c 1.082,0 2.057,-0.432 2.763,-1.128 0.707,-0.699 1.141,-1.657 1.141,-2.718 0,-1.061 -0.434,-2.019 -1.14,-2.717 C 2.057,-7.736 1.082,-8.167 0,-8.167 c -2.161,0 -3.898,1.726 -3.903,3.845 0.005,2.118 1.742,3.846 3.903,3.846 L 0,0" /></g><g
       transform="translate(388.28837,690.60137)"
       id="g3582"><path
         id="path3584"
         style="fill:#9cc96e;fill-opacity:1;fill-rule:nonzero;stroke:none"
         d="m 0,0 c -2.162,0 -3.898,1.729 -3.903,3.848 10e-4,0.313 0.039,0.618 0.111,0.909 l 2.095,2.554 C -1.184,7.556 -0.609,7.693 0,7.693 L 0,8.168 0,7.693 C 2.162,7.692 3.9,5.966 3.904,3.848 3.903,3.229 3.754,2.643 3.49,2.125 L 2.25,0.704 C 1.615,0.261 0.838,0 0,0" /></g><g
       transform="translate(384.49637,695.35837)"
       id="g3586"><path
         id="path3588"
         style="fill:#90b06a;fill-opacity:1;fill-rule:nonzero;stroke:none"
         d="M 0,0 C 0.28,1.126 1.058,2.06 2.095,2.554 L 0,0" /></g><g
       transform="translate(390.53837,691.30537)"
       id="g3590"><path
         id="path3592"
         style="fill:#90b06a;fill-opacity:1;fill-rule:nonzero;stroke:none"
         d="M 0,0 1.24,1.42 C 0.951,0.852 0.522,0.364 0,0" /></g><g
       transform="translate(388.28837,698.77037)"
       id="g3594"><path
         id="path3596"
         style="fill:#171715;fill-opacity:1;fill-rule:nonzero;stroke:none"
         d="M 0,0 0,0.476 C -2.678,0.471 -4.854,-1.667 -4.855,-4.321 -4.854,-6.974 -2.678,-9.115 0,-9.12 2.677,-9.115 4.854,-6.976 4.855,-4.321 4.854,-1.667 2.677,0.471 0,0.476 L 0,-0.476 C 2.162,-0.477 3.9,-2.203 3.904,-4.321 3.9,-6.44 2.161,-8.168 0,-8.168 c -2.162,0 -3.898,1.728 -3.903,3.847 0.005,2.118 1.741,3.844 3.903,3.845 L 0,0" /></g><g
       transform="translate(386.78437,687.55637)"
       id="g3598"><path
         id="path3600"
         style="fill:#977bb1;fill-opacity:1;fill-rule:nonzero;stroke:none"
         d="m 0,0 -8.688,0 3.347,4.08 c 0.309,0.067 0.632,0.104 0.964,0.104 C -2.006,4.184 -0.074,2.322 0,0" /></g><g
       transform="translate(378.09637,687.55637)"
       id="g3602"><path
         id="path3604"
         style="fill:#8b6c9d;fill-opacity:1;fill-rule:nonzero;stroke:none"
         d="m 0,0 -0.065,0 c 0.062,1.998 1.5,3.655 3.412,4.08 L 0,0" /></g><g
       transform="translate(45.236365,91.636363)"
       id="g3606"><g
         clip-path="url(#clipPath3610)"
         id="g3608"><g
           transform="translate(337.171,600.104)"
           id="g3614"><path
             id="path3616"
             style="fill:#171715;fill-opacity:1;fill-rule:nonzero;stroke:none"
             d="M 0,0 0,0.476 C -2.678,0.471 -4.855,-1.667 -4.856,-4.322 -4.855,-6.977 -2.678,-9.115 0,-9.12 2.675,-9.115 4.853,-6.977 4.854,-4.322 4.853,-1.667 2.675,0.471 0,0.476 l 0,-0.952 c 1.081,0 2.054,-0.431 2.761,-1.128 0.708,-0.699 1.141,-1.656 1.141,-2.718 0,-1.062 -0.433,-2.02 -1.141,-2.718 C 2.054,-7.738 1.081,-8.168 0,-8.168 c -2.162,10e-4 -3.901,1.726 -3.905,3.846 0.004,2.12 1.743,3.846 3.905,3.846 L 0,0" /></g></g></g><g
       transform="translate(527.66037,706.86337)"
       id="g3618"><path
         id="path3620"
         style="fill:#e3000b;fill-opacity:1;fill-rule:nonzero;stroke:none"
         d="m 0,0 c -0.901,0 -1.63,-0.721 -1.63,-1.609 0,-0.89 0.729,-1.609 1.63,-1.609 0.902,0 1.63,0.719 1.63,1.609 C 1.63,-0.721 0.902,0 0,0" /></g><g
       transform="translate(527.66037,706.86337)"
       id="g3622"><path
         id="path3624"
         style="fill:#171715;fill-opacity:1;fill-rule:nonzero;stroke:none"
         d="M 0,0 0,0.536 C -1.19,0.533 -2.165,-0.419 -2.166,-1.609 -2.165,-2.8 -1.19,-3.751 0,-3.754 1.19,-3.751 2.166,-2.8 2.167,-1.609 2.166,-0.419 1.191,0.533 0,0.536 L 0,-0.535 C 0.61,-0.536 1.095,-1.021 1.096,-1.609 1.095,-2.198 0.61,-2.682 0,-2.683 c -0.609,0 -1.096,0.486 -1.097,1.074 10e-4,0.587 0.488,1.073 1.097,1.074 L 0,0" /></g><g
       transform="translate(460.16337,704.10637)"
       id="g3626"><path
         id="path3628"
         style="fill:#171715;fill-opacity:1;fill-rule:nonzero;stroke:none"
         d="M 0,0 C 2.005,0.406 3.161,0.64 4.44,0.64 5.476,0.64 6.628,0.486 8.412,0.122 8.702,0.063 8.984,0.25 9.043,0.54 9.102,0.829 8.916,1.112 8.626,1.171 6.815,1.541 5.585,1.71 4.44,1.71 3.02,1.709 1.784,1.453 -0.214,1.05 -0.502,0.991 -0.69,0.708 -0.632,0.419 -0.573,0.128 -0.292,-0.059 0,0" /></g><g
       transform="translate(460.12137,713.24037)"
       id="g3630"><path
         id="path3632"
         style="fill:#171715;fill-opacity:1;fill-rule:nonzero;stroke:none"
         d="m 0,0 c 2.128,-0.403 3.444,-0.659 4.948,-0.66 1.218,0 2.525,0.169 4.459,0.539 0.289,0.056 0.479,0.337 0.426,0.627 C 9.775,0.797 9.495,0.987 9.205,0.931 7.297,0.565 6.063,0.411 4.948,0.411 3.578,0.411 2.338,0.646 0.199,1.051 -0.093,1.107 -0.374,0.917 -0.427,0.626 -0.483,0.335 -0.292,0.055 0,0" /></g><g
       transform="translate(393.20637,698.30037)"
       id="g3634"><path
         id="path3636"
         style="fill:#615a5a;fill-opacity:1;fill-rule:nonzero;stroke:none"
         d="M 0,0 C 1.635,1.872 1.977,2.232 2.365,2.615 2.766,3.01 3.249,3.457 5.08,5.414 6.225,6.635 7.468,7.392 8.789,7.875 10.107,8.358 11.505,8.562 12.929,8.641 13.322,8.663 13.623,9 13.601,9.393 13.58,9.786 13.244,10.088 12.85,10.067 11.345,9.982 9.8,9.766 8.297,9.216 6.795,8.667 5.336,7.778 4.038,6.389 2.209,4.437 1.78,4.04 1.364,3.632 0.936,3.21 0.557,2.809 -1.076,0.939 -1.335,0.642 -1.304,0.191 -1.006,-0.068 -0.71,-0.328 -0.261,-0.297 0,0" /></g><g
       transform="translate(404.13737,704.94037)"
       id="g3638"><path
         id="path3640"
         style="fill:#615a5a;fill-opacity:1;fill-rule:nonzero;stroke:none"
         d="M 0,0 1.077,2.662 -0.091,5.285 6.219,2.749 0,0" /></g><g
       transform="translate(433.28137,709.25337)"
       id="g3642"><path
         id="path3644"
         style="fill:#e3000b;fill-opacity:1;fill-rule:nonzero;stroke:none"
         d="m 0,0 c -0.901,0 -1.631,-0.721 -1.631,-1.609 0,-0.889 0.73,-1.61 1.631,-1.61 0.901,0 1.63,0.721 1.63,1.61 C 1.63,-0.721 0.901,0 0,0" /></g><g
       transform="translate(433.28137,709.25337)"
       id="g3646"><path
         id="path3648"
         style="fill:#171715;fill-opacity:1;fill-rule:nonzero;stroke:none"
         d="M 0,0 0,0.536 C -1.19,0.533 -2.165,-0.418 -2.167,-1.609 -2.165,-2.8 -1.19,-3.752 0,-3.753 1.192,-3.752 2.164,-2.799 2.165,-1.609 2.164,-0.42 1.193,0.533 0,0.536 L 0,-0.535 C 0.611,-0.536 1.092,-1.021 1.093,-1.609 1.092,-2.198 0.611,-2.684 0,-2.684 c -0.61,0 -1.094,0.487 -1.096,1.075 0.002,0.586 0.486,1.074 1.096,1.074 L 0,0" /></g><g
       transform="translate(379.00437,710.84637)"
       id="g3650"><path
         id="path3652"
         style="fill:#e3000b;fill-opacity:1;fill-rule:nonzero;stroke:none"
         d="m 0,0 c -0.902,0 -1.631,-0.722 -1.631,-1.609 0,-0.889 0.729,-1.609 1.631,-1.609 0.9,0 1.63,0.72 1.63,1.609 C 1.63,-0.722 0.9,0 0,0" /></g><g
       transform="translate(379.00437,710.84637)"
       id="g3654"><path
         id="path3656"
         style="fill:#171715;fill-opacity:1;fill-rule:nonzero;stroke:none"
         d="M 0,0 0,0.536 C -1.193,0.533 -2.166,-0.42 -2.168,-1.609 -2.167,-2.8 -1.192,-3.751 0,-3.753 1.192,-3.751 2.163,-2.799 2.164,-1.609 2.163,-0.421 1.192,0.533 0,0.536 L 0,-0.535 C 0.611,-0.536 1.092,-1.022 1.093,-1.609 1.092,-2.197 0.611,-2.683 0,-2.683 c -0.613,0 -1.094,0.487 -1.096,1.074 0.002,0.587 0.484,1.073 1.096,1.074 L 0,0" /></g><g
       transform="translate(371.52237,687.55637)"
       id="g3658"><path
         id="path3660"
         style="fill:#615a5a;fill-opacity:1;fill-rule:nonzero;stroke:none"
         d="m 0,0 0,-0.536 200.578,0 0,44.819 -201.112,0 0,-44.819 0.534,0 0,0.536 0.537,0 0,43.213 198.971,0 0,-42.678 L 0,0.535 0,0 0.537,0 0,0" /></g><text
       y="-739.67706"
       x="380.61142"
       id="text3662"
       style="font-variant:normal;font-weight:normal;font-size:7.66298246px;font-family:Helvetica;-inkscape-font-specification:Helvetica;writing-mode:lr-tb;fill:#171715;fill-opacity:1;fill-rule:nonzero;stroke:none"
       transform="scale(1.0066315,-0.99341218)"><tspan
         id="tspan3664"
         y="-739.67706"
         x="380.61142 386.01382 390.56488 392.69519 399.07846 400.77963">RT mix</tspan><tspan
         id="tspan3666"
         y="-682.05524"
         x="368.32382 373.85651 379.38919 384.08582 386.21613 390.47675 394.73737 397.28915 401.12064 405.38126 409.64188 411.34305 415.60367 419.86429">DNA barcoding </tspan><tspan
         id="tspan3668"
         y="-674.39148"
         x="368.32382 372.58444 376.41595 380.67654 383.22833 387.48895 391.74957 396.01019 397.71136">hydrogels</tspan><tspan
         id="tspan3670"
         y="-710.77838"
         x="350.35184 354.18256 358.44241 360.14282 361.84326">cells</tspan><tspan
         id="tspan3672"
         y="-738.71838"
         x="457.31943 461.57925 463.27969">oil</tspan><tspan
         id="tspan3674"
         y="-683.68359"
         x="456.84354 461.10339 462.8038">oil</tspan></text>
<g
       transform="translate(463.76637,727.32737)"
       id="g3676"><path
         id="path3678"
         style="fill:#615a5a;fill-opacity:1;fill-rule:nonzero;stroke:none"
         d="m 0,0 0,-2.934 c 0,-0.394 0.319,-0.713 0.714,-0.713 0.392,0 0.713,0.319 0.713,0.713 L 1.427,0 C 1.427,0.394 1.106,0.713 0.714,0.713 0.319,0.713 0,0.394 0,0" /></g><g
       transform="translate(461.83737,726.39937)"
       id="g3680"><path
         id="path3682"
         style="fill:#615a5a;fill-opacity:1;fill-rule:nonzero;stroke:none"
         d="M 0,0 2.643,-1.123 5.284,0 2.643,-6.265 0,0" /></g><g
       transform="translate(465.19337,690.87037)"
       id="g3684"><path
         id="path3686"
         style="fill:#615a5a;fill-opacity:1;fill-rule:nonzero;stroke:none"
         d="m 0,0 0,2.933 c 0,0.394 -0.321,0.713 -0.713,0.713 -0.395,0 -0.714,-0.319 -0.714,-0.713 l 0,-2.933 c 0,-0.393 0.319,-0.713 0.714,-0.713 C -0.321,-0.713 0,-0.393 0,0" /></g><g
       transform="translate(467.12137,691.79937)"
       id="g3688"><path
         id="path3690"
         style="fill:#615a5a;fill-opacity:1;fill-rule:nonzero;stroke:none"
         d="M 0,0 -2.641,1.123 -5.284,0 -2.641,6.266 0,0" /></g></g></svg>